<svg xmlns="http://www.w3.org/2000/svg" width="17.096" height="17.965" viewBox="0 0 17.096 17.965">
  <g id="Group_25" data-name="Group 25" transform="translate(0)">
    <g id="Group_26" data-name="Group 26">
      <path id="Path_224" data-name="Path 224" d="M19.639,3.6h-1.3V3.181a.681.681,0,1,0-1.362,0v.435H13.947V3.181a.681.681,0,1,0-1.362,0v.435H9.541V3.181a.681.681,0,1,0-1.362,0v.435h-1.3A2.187,2.187,0,0,0,4.7,5.79v12.5a2.187,2.187,0,0,0,2.175,2.175H19.621A2.187,2.187,0,0,0,21.8,18.29V5.772A2.147,2.147,0,0,0,19.639,3.6ZM6.894,4.958H8.2v.435a.681.681,0,0,0,1.362,0V4.958H12.6v.435a.681.681,0,1,0,1.362,0V4.958h3.045v.435a.681.681,0,0,0,1.362,0V4.958h1.3a.839.839,0,0,1,.832.832V7.076H6.062V5.79A.827.827,0,0,1,6.894,4.958ZM19.639,19.122H6.894a.839.839,0,0,1-.832-.832V8.419H20.453V18.29A.811.811,0,0,1,19.639,19.122Z" transform="translate(-4.7 -2.5)" fill="#f89122"/>
      <path id="Path_225" data-name="Path 225" d="M22.594,41H20.948a.549.549,0,0,0-.548.548v.586a.549.549,0,0,0,.548.548h1.645a.549.549,0,0,0,.548-.548v-.586A.549.549,0,0,0,22.594,41Z" transform="translate(-17.431 -33.719)" fill="#f89122"/>
      <path id="Path_226" data-name="Path 226" d="M67.275,41H65.648a.549.549,0,0,0-.548.548v.586a.549.549,0,0,0,.548.548h1.645a.549.549,0,0,0,.548-.548v-.586A.553.553,0,0,0,67.275,41Z" transform="translate(-53.678 -33.719)" fill="#f89122"/>
      <path id="Path_227" data-name="Path 227" d="M44.894,41H43.248a.549.549,0,0,0-.548.548v.586a.549.549,0,0,0,.548.548h1.645a.549.549,0,0,0,.548-.548v-.586A.549.549,0,0,0,44.894,41Z" transform="translate(-35.514 -33.719)" fill="#f89122"/>
      <path id="Path_228" data-name="Path 228" d="M22.594,57.8H20.948a.549.549,0,0,0-.548.548v.586a.549.549,0,0,0,.548.548h1.645a.549.549,0,0,0,.548-.548v-.586A.549.549,0,0,0,22.594,57.8Z" transform="translate(-17.431 -47.342)" fill="#f89122"/>
      <path id="Path_229" data-name="Path 229" d="M67.275,57.8H65.648a.549.549,0,0,0-.548.548v.586a.549.549,0,0,0,.548.548h1.645a.549.549,0,0,0,.548-.548v-.586A.553.553,0,0,0,67.275,57.8Z" transform="translate(-53.678 -47.342)" fill="#f89122"/>
      <path id="Path_230" data-name="Path 230" d="M44.894,57.8H43.248a.549.549,0,0,0-.548.548v.586a.549.549,0,0,0,.548.548h1.645a.549.549,0,0,0,.548-.548v-.586A.549.549,0,0,0,44.894,57.8Z" transform="translate(-35.514 -47.342)" fill="#f89122"/>
      <path id="Path_231" data-name="Path 231" d="M22.594,74.7H20.948a.549.549,0,0,0-.548.548v.586a.549.549,0,0,0,.548.548h1.645a.549.549,0,0,0,.548-.548v-.586A.549.549,0,0,0,22.594,74.7Z" transform="translate(-17.431 -61.046)" fill="#f89122"/>
      <path id="Path_232" data-name="Path 232" d="M67.275,74.7H65.648a.549.549,0,0,0-.548.548v.586a.549.549,0,0,0,.548.548h1.645a.549.549,0,0,0,.548-.548v-.586A.553.553,0,0,0,67.275,74.7Z" transform="translate(-53.678 -61.046)" fill="#f89122"/>
      <path id="Path_233" data-name="Path 233" d="M44.894,74.7H43.248a.549.549,0,0,0-.548.548v.586a.549.549,0,0,0,.548.548h1.645a.549.549,0,0,0,.548-.548v-.586A.549.549,0,0,0,44.894,74.7Z" transform="translate(-35.514 -61.046)" fill="#f89122"/>
    </g>
  </g>
</svg>
