<svg xmlns="http://www.w3.org/2000/svg" width="16.535" height="16.535" viewBox="0 0 16.535 16.535">
  <g id="distance" transform="translate(-0.764)">
    <g id="Group_2419" data-name="Group 2419" transform="translate(0.764)">
      <g id="Group_2418" data-name="Group 2418">
        <path id="Path_6268" data-name="Path 6268" d="M344.09,0a2.759,2.759,0,0,0-2.756,2.756c0,1.318,1.953,3.986,2.411,4.593,0,.2,0,.389,0,.565a.345.345,0,0,0,.335.354h.009a.345.345,0,0,0,.344-.335c0-.181,0-.379,0-.581.455-.6,2.412-3.276,2.412-4.6A2.759,2.759,0,0,0,344.09,0Zm0,3.445a.689.689,0,1,1,.689-.689A.69.69,0,0,1,344.09,3.445Z" transform="translate(-330.31)" fill="#fff"/>
        <path id="Path_6269" data-name="Path 6269" d="M293.333,306.069a2.8,2.8,0,0,0-1.073,1.276.344.344,0,1,0,.621.3,2.059,2.059,0,0,1,.792-.975.344.344,0,1,0-.34-.6Z" transform="translate(-282.789 -296.14)" fill="#fff"/>
        <path id="Path_6270" data-name="Path 6270" d="M186.348,460.042a3.772,3.772,0,0,1-1.2.63.345.345,0,0,0,.213.655,4.51,4.51,0,0,0,1.414-.745.345.345,0,0,0-.428-.54Z" transform="translate(-178.939 -445.113)" fill="#fff"/>
        <path id="Path_6271" data-name="Path 6271" d="M256.487,383.73a.344.344,0,0,0-.446.2,8.05,8.05,0,0,1-.608,1.29.345.345,0,0,0,.588.359,8.722,8.722,0,0,0,.662-1.4A.345.345,0,0,0,256.487,383.73Z" transform="translate(-247.135 -371.315)" fill="#fff"/>
        <path id="Path_6272" data-name="Path 6272" d="M367.586,279.256a.345.345,0,0,0-.478.092c-.113.168-.346.4-1.048.461a.345.345,0,0,0,.031.688h.031a1.953,1.953,0,0,0,1.556-.761A.345.345,0,0,0,367.586,279.256Z" transform="translate(-353.934 -270.18)" fill="#fff"/>
        <path id="Path_6273" data-name="Path 6273" d="M4.95,181.006c1.087-1.159,3.318-3.826,3.318-6.205a4.09,4.09,0,0,0-4.134-4.134A4.09,4.09,0,0,0,0,174.8c0,3.056,3.684,6.593,3.89,6.788h0l.006.006a.323.323,0,0,0,.048.03.336.336,0,0,0,.059.038.344.344,0,0,0,.129.026q.376,0,.716-.026a.344.344,0,0,0,.318-.369A.338.338,0,0,0,4.95,181.006Zm-.816-4.138A2.067,2.067,0,1,1,6.2,174.8,2.069,2.069,0,0,1,4.134,176.868Z" transform="translate(0 -165.155)" fill="#fff"/>
      </g>
    </g>
  </g>
</svg>
