<svg xmlns="http://www.w3.org/2000/svg" width="20.746" height="18.792" viewBox="0 0 20.746 18.792">
  <path id="Path_421" data-name="Path 421" d="M26.091,28.017a.7.7,0,0,0-.7.7v4.318a.7.7,0,0,1-.7.7H14.927a.7.7,0,0,1-.7-.7V18.427a.7.7,0,0,1,.7-.7H24.7a.7.7,0,0,1,.7.7v4.318a.7.7,0,0,0,1.4,0V18.427A2.1,2.1,0,0,0,24.7,16.334H14.927a2.1,2.1,0,0,0-2.093,2.093V33.033a2.1,2.1,0,0,0,2.093,2.093H24.7a2.1,2.1,0,0,0,2.093-2.093V28.715A.7.7,0,0,0,26.091,28.017Zm7.488-2.293a.718.718,0,0,0-.013-.131c-.005-.023-.013-.045-.02-.068s-.011-.041-.019-.062a.7.7,0,0,0-.042-.08c-.008-.013-.013-.027-.022-.04a.7.7,0,0,0-.09-.109l-4.01-4.011a.7.7,0,1,0-.987.987L31.2,25.032H18.648a.7.7,0,1,0,0,1.4H31.2l-2.822,2.822a.7.7,0,0,0,.987.987l4.013-4.013.01-.013a.68.68,0,0,0,.076-.093c.013-.019.021-.04.032-.059s.023-.04.032-.061a.728.728,0,0,0,.023-.075c.006-.018.013-.036.016-.056a.7.7,0,0,0,.014-.137A.03.03,0,0,1,33.579,25.724Z" transform="translate(-12.834 -16.334)" fill="#f89122"/>
</svg>
