<svg xmlns="http://www.w3.org/2000/svg" width="19.134" height="19.134" viewBox="0 0 19.134 19.134">
  <g id="noun_User_1335326" transform="translate(0 0)">
    <g id="Group_3" data-name="Group 3" transform="translate(0 0)">
      <path id="Path_4" data-name="Path 4" d="M14.62,5.053a9.567,9.567,0,1,0,9.567,9.567A9.578,9.578,0,0,0,14.62,5.053Zm0,17.822a8.255,8.255,0,1,1,8.255-8.255A8.265,8.265,0,0,1,14.62,22.875Z" transform="translate(-5.053 -5.053)" fill="#f89122"/>
      <path id="Path_5" data-name="Path 5" d="M39.864,30.594A2.969,2.969,0,1,0,36.9,27.625,2.972,2.972,0,0,0,39.864,30.594Zm0-4.627a1.657,1.657,0,1,1-1.657,1.658A1.659,1.659,0,0,1,39.864,25.967Z" transform="translate(-30.118 -20.484)" fill="#f89122"/>
      <path id="Path_6" data-name="Path 6" d="M35.355,55.063A3.7,3.7,0,0,0,31.9,52.548a.653.653,0,0,0-.433.128,2.938,2.938,0,0,1-3.552,0,.658.658,0,0,0-.433-.127,3.707,3.707,0,0,0-3.466,2.542.656.656,0,1,0,1.225.468,2.367,2.367,0,0,1,2.1-1.681,4.24,4.24,0,0,0,4.691,0,2.363,2.363,0,0,1,2.1,1.661.656.656,0,0,0,1.223-.474Z" transform="translate(-19.943 -42.438)" fill="#f89122"/>
    </g>
  </g>
</svg>
