<svg xmlns="http://www.w3.org/2000/svg" width="13.928" height="14.12" viewBox="0 0 13.928 14.12">
  <g id="Icon_zocial-www" data-name="Icon zocial-www" transform="translate(0 0)">
    <path id="Path_6321" data-name="Path 6321" d="M74.893,111.689a7.24,7.24,0,0,0-6.921,4.964H69a5.914,5.914,0,0,1,.381-.821h1.974a8.318,8.318,0,0,0-.215.821h1a7.718,7.718,0,0,1,.252-.821h1.9v.821h.965v-.821h2.058a7.2,7.2,0,0,1,.282.821h1a8.076,8.076,0,0,0-.241-.821h2.049a5.912,5.912,0,0,1,.381.821h1.023A7.238,7.238,0,0,0,74.893,111.689Zm1.457,1.136a6.288,6.288,0,0,1,3.385,2.043H77.944A6.771,6.771,0,0,0,76.35,112.824Zm-3.2.071a6.411,6.411,0,0,0-1.422,1.972H70.052A6.28,6.28,0,0,1,73.155,112.9Zm2.105.31a5.563,5.563,0,0,1,1.558,1.661H75.26Zm-.965.006v1.655H72.84A5.11,5.11,0,0,1,74.294,113.212Zm-6.033,4.374a.412.412,0,0,0-.241.067.2.2,0,0,0-.1.166.638.638,0,0,0,.045.2l.513,1.474c.016.044.034.094.054.146a.5.5,0,0,0,.082.14.337.337,0,0,0,.136.095.571.571,0,0,0,.215.034.493.493,0,0,0,.256-.058.352.352,0,0,0,.136-.127,2.319,2.319,0,0,0,.095-.218l.459-1.293.457,1.3c.038.1.068.167.093.213a.342.342,0,0,0,.134.127.507.507,0,0,0,.259.056.5.5,0,0,0,.265-.058.347.347,0,0,0,.131-.134,2.137,2.137,0,0,0,.088-.224l.513-1.474a.708.708,0,0,0,.047-.2.2.2,0,0,0-.1-.166.415.415,0,0,0-.239-.067.38.38,0,0,0-.218.052.3.3,0,0,0-.1.114,1.206,1.206,0,0,0-.058.162l-.362,1.254-.405-1.174a2.194,2.194,0,0,0-.093-.215.37.37,0,0,0-.136-.131.516.516,0,0,0-.274-.06.543.543,0,0,0-.274.058.374.374,0,0,0-.144.136,1.563,1.563,0,0,0-.093.213l-.4,1.174-.364-1.263a.716.716,0,0,0-.11-.231A.319.319,0,0,0,68.261,117.586Zm4.962,0a.413.413,0,0,0-.241.067.2.2,0,0,0-.1.166.653.653,0,0,0,.047.2l.513,1.474c.016.044.034.094.054.146a.5.5,0,0,0,.08.14.337.337,0,0,0,.136.095.571.571,0,0,0,.215.034.5.5,0,0,0,.259-.058.344.344,0,0,0,.134-.127,2.309,2.309,0,0,0,.095-.218l.459-1.293.457,1.3c.038.1.068.167.093.213a.342.342,0,0,0,.134.127.507.507,0,0,0,.259.056.5.5,0,0,0,.265-.058.347.347,0,0,0,.131-.134,2.133,2.133,0,0,0,.088-.224l.513-1.474a.708.708,0,0,0,.047-.2.2.2,0,0,0-.1-.166.415.415,0,0,0-.239-.067.38.38,0,0,0-.218.052.3.3,0,0,0-.1.114,1.2,1.2,0,0,0-.058.162l-.362,1.254-.405-1.174a2.2,2.2,0,0,0-.093-.215.362.362,0,0,0-.134-.131.516.516,0,0,0-.274-.06.552.552,0,0,0-.276.058.374.374,0,0,0-.144.136,1.562,1.562,0,0,0-.093.213l-.4,1.174L73.6,117.9a.716.716,0,0,0-.108-.231A.324.324,0,0,0,73.224,117.586Zm4.962,0a.413.413,0,0,0-.241.067.2.2,0,0,0-.1.166.653.653,0,0,0,.047.2l.513,1.474c.016.044.034.094.054.146a.5.5,0,0,0,.08.14.337.337,0,0,0,.136.095.571.571,0,0,0,.215.034.5.5,0,0,0,.259-.058.344.344,0,0,0,.134-.127,2.211,2.211,0,0,0,.1-.218l.457-1.293.457,1.3c.038.1.068.167.093.213a.342.342,0,0,0,.134.127.507.507,0,0,0,.259.056.5.5,0,0,0,.265-.058.347.347,0,0,0,.131-.134,2.133,2.133,0,0,0,.088-.224l.513-1.474a.708.708,0,0,0,.047-.2.194.194,0,0,0-.1-.166.422.422,0,0,0-.241-.067.38.38,0,0,0-.218.052.3.3,0,0,0-.1.114,1.2,1.2,0,0,0-.058.162l-.36,1.254-.407-1.174a2.2,2.2,0,0,0-.093-.215.362.362,0,0,0-.134-.131.516.516,0,0,0-.274-.06.552.552,0,0,0-.276.058.374.374,0,0,0-.144.136,1.563,1.563,0,0,0-.093.213l-.4,1.174-.362-1.263a.717.717,0,0,0-.11-.231A.324.324,0,0,0,78.186,117.586Zm-10.25,3.131a7.3,7.3,0,0,0,13.915,0H80.832a5.945,5.945,0,0,1-.349.8H78.414a8.213,8.213,0,0,0,.222-.8h-.985a6.748,6.748,0,0,1-.252.8H75.26v-.8h-.965v.8H72.34a8.169,8.169,0,0,1-.228-.8h-.991c.056.272.123.541.2.8H69.3a5.956,5.956,0,0,1-.351-.8Zm2,1.769h1.73a6.129,6.129,0,0,0,1.424,2.1A6.266,6.266,0,0,1,69.938,122.486Zm2.805,0h1.551v1.8A4.6,4.6,0,0,1,72.743,122.486Zm2.517,0h1.659a5.286,5.286,0,0,1-1.659,1.758Zm2.769,0h1.821a6.278,6.278,0,0,1-3.547,2.2A6.5,6.5,0,0,0,78.028,122.486Z" transform="translate(-67.923 -111.689)" fill="#fff"/>
  </g>
</svg>
